<svg xmlns="http://www.w3.org/2000/svg" xmlns:osb="http://www.openswatchbook.org/uri/2009/osb" xmlns:svg="http://www.w3.org/2000/svg" id="svg2" width="744.094" height="1052.362" version="1.1"><defs id="defs4"><linearGradient id="linearGradient5817" osb:paint="solid"><stop style="stop-color:#000;stop-opacity:1" id="stop5819" offset="0"/></linearGradient><marker id="EmptyTriangleOutL" orient="auto" refX="0" refY="0" style="overflow:visible"><path id="path4366" d="M 5.77,0.0 L -2.88,5.0 L -2.88,-5.0 L 5.77,0.0 z" style="fill-rule:evenodd;fill:#fff;stroke:#000;stroke-width:1pt;marker-start:none" transform="scale(0.8) translate(-6,0)"/></marker><marker id="Arrow1Lend" orient="auto" refX="0" refY="0" style="overflow:visible"><path id="path4208" d="M 0.0,0.0 L 5.0,-5.0 L -12.5,0.0 L 5.0,5.0 L 0.0,0.0 z" style="fill-rule:evenodd;stroke:#000;stroke-width:1pt;marker-start:none" transform="scale(0.8) rotate(180) translate(12.5,0)"/></marker><marker id="DiamondLend" orient="auto" refX="0" refY="0" style="overflow:visible"><path id="path4303" d="M 0,-7.0710768 L -7.0710894,0 L 0,7.0710589 L 7.0710462,0 L 0,-7.0710768 z" style="fill-rule:evenodd;stroke:#000;stroke-width:1pt;marker-start:none" transform="scale(0.8) translate(-7,0)"/></marker><marker id="DiamondLstart" orient="auto" refX="0" refY="0" style="overflow:visible"><path id="path4294" d="M 0,-7.0710768 L -7.0710894,0 L 0,7.0710589 L 7.0710462,0 L 0,-7.0710768 z" style="fill-rule:evenodd;stroke:#000;stroke-width:1pt;marker-start:none" transform="scale(0.8) translate(7,0)"/></marker><marker id="DiamondLend-4" orient="auto" refX="0" refY="0" style="overflow:visible"><path id="path4303-3" d="M 0,-7.0710768 -7.0710894,0 0,7.0710589 7.0710462,0 0,-7.0710768 z" style="fill-rule:evenodd;stroke:#000;stroke-width:1pt;marker-start:none" transform="matrix(0.8,0,0,0.8,-5.6,0)"/></marker></defs><metadata id="metadata7"/><g id="layer1"><rect style="fill:#dfdfdf;fill-opacity:1;stroke:#000;stroke-width:1;stroke-miterlimit:4;stroke-opacity:1;stroke-dasharray:none;stroke-dashoffset:0" id="rect2987" width="620" height="420" x="-650" y="22.362" transform="scale(-1,1)"/><text xml:space="preserve" style="font-style:normal;font-variant:normal;font-weight:400;font-stretch:normal;font-size:12.00000095px;line-height:125%;font-family:Sans;-inkscape-font-specification:'Sans, Normal';text-align:start;letter-spacing:0;word-spacing:0;writing-mode:lr-tb;text-anchor:start;fill:#000;fill-opacity:1;stroke:none" id="text2993" x="316.718" y="32.362"><tspan id="tspan3451" x="316.718" y="32.362">Testbed</tspan></text><rect style="fill:#fabaa0;fill-opacity:1;stroke:#000;stroke-width:1;stroke-miterlimit:4;stroke-opacity:1;stroke-dasharray:none;stroke-dashoffset:0" id="rect2997" width="280" height="350" x="40" y="42.362"/><text xml:space="preserve" style="font-size:12px;font-style:normal;font-variant:normal;font-weight:400;font-stretch:normal;text-align:start;line-height:125%;letter-spacing:0;word-spacing:0;writing-mode:lr-tb;text-anchor:start;fill:#000;fill-opacity:1;stroke:none;font-family:Sans;-inkscape-font-specification:Sans" id="text2989-1-4" x="135.501" y="52.362"><tspan id="tspan3809" x="135.501" y="52.362">Robotframework</tspan></text><rect style="fill:#fff;fill-opacity:.90196079;stroke:#000;stroke-width:1;stroke-miterlimit:4;stroke-opacity:1;stroke-dasharray:none;stroke-dashoffset:0" id="rect3813" width="200" height="155" x="90" y="72.362"/><text xml:space="preserve" style="font-style:normal;font-variant:normal;font-weight:700;font-stretch:normal;font-size:11.25px;line-height:125%;font-family:Sans;-inkscape-font-specification:'Sans, Bold';text-align:center;letter-spacing:0;word-spacing:0;writing-mode:lr-tb;text-anchor:middle;fill:#000;fill-opacity:1;stroke:none" id="text2989-1" x="189.635" y="82.362"><tspan id="tspan3811" x="189.635" y="82.362">DhcpClientLibrary</tspan></text><path style="fill:none;stroke:#000;stroke-width:1px;stroke-linecap:butt;stroke-linejoin:miter;stroke-opacity:1" id="path3815" d="m 90,92.362183 200,0"/><text xml:space="preserve" style="font-style:normal;font-variant:normal;font-weight:400;font-stretch:normal;font-size:11.25px;line-height:82.99999833%;font-family:Sans;-inkscape-font-specification:'Sans, Normal';text-align:start;letter-spacing:0;word-spacing:0;writing-mode:lr-tb;text-anchor:start;fill:#000;fill-opacity:1;stroke:none" id="text7989" x="90" y="104.362"><tspan id="tspan7989-1" x="90" y="104.362">- _ifname</tspan><tspan id="tspan7989-2" x="90" y="113.7">- _dhcp_client_daemon_exec_path</tspan><tspan id="tspan7989-3" x="90" y="123.037">- _slave_dhcp_process</tspan><tspan id="tspan7989-4" x="90" y="132.375">- _dhcp_client_ctrl</tspan></text><path style="fill:none;stroke:#000;stroke-width:1px;stroke-linecap:butt;stroke-linejoin:miter;stroke-opacity:1" id="path3815-8" d="m 90,152.36218 200,0"/><rect style="fill:#fff;fill-opacity:.90196079;stroke:#000;stroke-width:1;stroke-miterlimit:4;stroke-opacity:1;stroke-dasharray:none;stroke-dashoffset:0" id="rect3813-1" width="200" height="70" x="90" y="237.362"/><text xml:space="preserve" style="font-style:normal;font-variant:normal;font-weight:700;font-stretch:normal;font-size:11.25px;line-height:125%;font-family:Sans;-inkscape-font-specification:'Sans, Bold';text-align:center;letter-spacing:0;word-spacing:0;writing-mode:lr-tb;text-anchor:middle;fill:#000;fill-opacity:1;stroke:none" id="text2989-1-7" x="190.006" y="247.362"><tspan id="tspan3951" x="190.006" y="247.362">SlaveDhcpProcess</tspan></text><path style="fill:none;stroke:#000;stroke-width:1px;stroke-linecap:butt;stroke-linejoin:miter;stroke-opacity:1" id="path3815-1" d="m 90,257.36218 200,0"/><path style="fill:none;stroke:#000;stroke-width:1px;stroke-linecap:butt;stroke-linejoin:miter;stroke-opacity:1;marker-start:none;marker-end:url(#DiamondLend)" id="path4020" d="m 220,122.36218 80,0 -0.0568,125 -9.94316,0"/><rect style="fill:#fabaa0;fill-opacity:1;stroke:#000;stroke-width:1;stroke-miterlimit:4;stroke-opacity:1;stroke-dasharray:none;stroke-dashoffset:0" id="rect2997-4" width="280" height="350" x="360" y="42.362"/><text xml:space="preserve" style="font-style:normal;font-variant:normal;font-weight:400;font-stretch:normal;font-size:12.00000095px;line-height:125%;font-family:Sans;-inkscape-font-specification:'Sans, Normal';text-align:start;letter-spacing:0;word-spacing:0;writing-mode:lr-tb;text-anchor:start;fill:#000;fill-opacity:1;stroke:none" id="text2989-1-4-2" x="370.465" y="52.362"><tspan id="tspan3453" x="370.465" y="52.362">DBusControlledDhcpClient.py process</tspan></text><text xml:space="preserve" style="font-size:10px;font-style:oblique;font-variant:normal;font-weight:400;font-stretch:normal;text-align:end;line-height:125%;letter-spacing:0;word-spacing:0;writing-mode:lr-tb;text-anchor:end;fill:#000;fill-opacity:1;stroke:none;font-family:Sans;-inkscape-font-specification:Sans Oblique" id="text5245" x="320" y="52.362"><tspan id="tspan5247" x="320" y="52.362">(jenkins)</tspan></text><text xml:space="preserve" style="font-size:10px;font-style:oblique;font-variant:normal;font-weight:400;font-stretch:normal;text-align:end;line-height:125%;letter-spacing:0;word-spacing:0;writing-mode:lr-tb;text-anchor:end;fill:#000;fill-opacity:1;stroke:none;font-family:Sans;-inkscape-font-specification:Sans Oblique" id="text5245-2" x="640" y="52.362"><tspan id="tspan5270" x="640" y="52.362">(root)</tspan></text><path style="fill:none;stroke:#000;stroke-width:1px;stroke-linecap:butt;stroke-linejoin:miter;stroke-opacity:1;marker-end:url(#Arrow1Lend)" id="path5014" d="m 130,267.36218 210,0 0,-204.999995 20,0"/><g id="layer1-7" transform="matrix(0,-0.73761832,0.73761832,0,-688.54873,230.80977)"><g id="text2987" style="font-size:78.59629822px;font-style:normal;font-weight:400;line-height:125%;letter-spacing:0;word-spacing:0;fill:#000;fill-opacity:1;stroke:none;font-family:Sans" transform="matrix(0,-0.633725,-1.57797,0,0,0)"><path id="path2985" style="font-variant:normal;font-stretch:normal;text-align:start;line-height:125%;text-anchor:start;font-family:NSimSun" d="m -1637.9508,-33.933505 c -2.6608,0.204705 -4.4518,1.074585 -5.3728,2.609643 -0.9211,1.535107 -1.3816,3.530714 -1.3816,5.986828 l 0,13.201722 c 0,4.5029135 -0.8187,7.6242477 -2.4561,9.3640117 -1.6374,1.7397562 -4.1959,2.60963622 -7.6754,2.60964267 l 0,-2.14911757 c 2.8655,-4.3e-6 4.8099,-0.7675455 5.8333,-2.3026259 1.0234,-1.5350844 1.5351,-3.6330304 1.5351,-6.2938439 l 0,-15.043823 c 0,-2.865468 0.6652,-5.014583 1.9956,-6.447353 1.3304,-1.432717 2.9166,-2.149089 4.7587,-2.149117 l 0,-0.614034 c -1.6374,2.9e-5 -3.1725,-0.614004 -4.6052,-1.8421 -1.4328,-1.228036 -2.1491,-3.47949 -2.1491,-6.75437 l 0,-15.043823 c 0,-2.865434 -0.5117,-5.01455 -1.5351,-6.447352 -1.0234,-1.432685 -2.9678,-2.149057 -5.8333,-2.149118 l 0,-2.149117 c 3.4795,6.3e-5 6.038,0.869943 7.6754,2.609643 1.6374,1.73982 2.4561,4.861154 2.4561,9.364012 l 0,13.201722 c 0,2.865525 0.5117,4.912301 1.5351,6.140335 1.0234,1.228098 2.7631,2.046809 5.2193,2.456135 z"/></g></g><text xml:space="preserve" style="font-size:12px;font-style:normal;font-variant:normal;font-weight:400;font-stretch:normal;text-align:center;line-height:125%;letter-spacing:0;word-spacing:0;writing-mode:lr-tb;text-anchor:middle;fill:#000;fill-opacity:1;stroke:none;font-family:Sans;-inkscape-font-specification:Sans" id="text2989-1-4-6" x="-190.49" y="70.601" transform="matrix(0,-1,1,0,0,0)"><tspan id="tspan5314" x="-190.49" y="70.601">RF API (keywords)</tspan></text><text xml:space="preserve" style="font-size:12px;font-style:normal;font-variant:normal;font-weight:400;font-stretch:normal;text-align:center;line-height:125%;letter-spacing:0;word-spacing:0;writing-mode:lr-tb;text-anchor:middle;fill:#000;fill-opacity:1;stroke:none;font-family:Sans;-inkscape-font-specification:Sans" id="text2989-1-4-6-8" x="-155.602" y="340" transform="matrix(0,-1,1,0,0,0)"><tspan id="tspan5337" x="-155.602" y="340">Process spawned (using sudo)</tspan></text><path style="fill:none;stroke:#000;stroke-width:5;stroke-linecap:butt;stroke-linejoin:miter;stroke-miterlimit:4;stroke-opacity:1;stroke-dasharray:none" id="path5339" d="m 40,412.36218 600,0"/><path style="fill:none;stroke:#000;stroke-width:5;stroke-linecap:butt;stroke-linejoin:miter;stroke-miterlimit:4;stroke-dasharray:none;stroke-opacity:1" id="path5341" d="m 190,412.36218 0,-30"/><path style="fill:none;stroke:#000;stroke-width:5;stroke-linecap:butt;stroke-linejoin:miter;stroke-miterlimit:4;stroke-opacity:1;stroke-dasharray:none" id="path5343" d="m 500,412.36218 0,-40"/><rect style="fill:#fff;fill-opacity:.90196079;stroke:#000;stroke-width:1;stroke-miterlimit:4;stroke-opacity:1;stroke-dasharray:none;stroke-dashoffset:0" id="rect3813-1-2" width="200" height="70" x="90" y="317.362"/><text xml:space="preserve" style="font-style:normal;font-variant:normal;font-weight:700;font-stretch:normal;font-size:11.25px;line-height:125%;font-family:Sans;-inkscape-font-specification:'Sans, Bold';text-align:center;letter-spacing:0;word-spacing:0;writing-mode:lr-tb;text-anchor:middle;fill:#000;fill-opacity:1;stroke:none" id="text2989-1-7-7" x="188.924" y="327.362"><tspan id="tspan5372" x="188.924" y="327.362">RemoteDhcpClientControl</tspan></text><path style="fill:none;stroke:#000;stroke-width:1px;stroke-linecap:butt;stroke-linejoin:miter;stroke-opacity:1;marker-start:none;marker-end:url(#DiamondLend)" id="path4020-1" d="m 200,132.36218 110,0 0,195 -20,0"/><text xml:space="preserve" style="font-size:14px;font-style:normal;font-variant:normal;font-weight:400;font-stretch:normal;text-align:center;line-height:125%;letter-spacing:0;word-spacing:0;writing-mode:lr-tb;text-anchor:middle;fill:#000;fill-opacity:1;stroke:none;font-family:Sans;-inkscape-font-specification:Sans" id="text5436" x="339.791" y="432.362"><tspan id="tspan5440" x="339.791" y="432.362">D-Bus System Bus: &quot;com.legrandelectric.RobotFrameworkIPC.DhcpClientLibrary&quot;</tspan></text><rect style="fill:#fff;fill-opacity:.90196079;stroke:#000;stroke-width:1;stroke-miterlimit:4;stroke-opacity:1;stroke-dasharray:none;stroke-dashoffset:0" id="rect3813-13" width="200" height="240" x="400" y="142.362"/><text xml:space="preserve" style="font-style:normal;font-variant:normal;font-weight:700;font-stretch:normal;font-size:11.25px;line-height:125%;font-family:Sans;-inkscape-font-specification:'Sans, Bold';text-align:center;letter-spacing:0;word-spacing:0;writing-mode:lr-tb;text-anchor:middle;fill:#000;fill-opacity:1;stroke:none" id="text2989-1-8" x="500.267" y="152.362"><tspan id="tspan3096" x="500.267" y="152.362">DBusControlledDhcpClient</tspan></text><path style="fill:none;stroke:#000;stroke-width:1px;stroke-linecap:butt;stroke-linejoin:miter;stroke-opacity:1" id="path3815-4" d="m 400,162.36218 200,0"/><text xml:space="preserve" style="font-size:11.25px;font-style:normal;font-variant:normal;font-weight:400;font-stretch:normal;text-align:start;line-height:83%;letter-spacing:0;word-spacing:0;writing-mode:lr;text-anchor:start;fill:#000;fill-opacity:1;stroke:none;font-family:Sans;-inkscape-font-specification:'Sans, Normal'" id="text2989-1-9-2" x="400" y="172.362"><tspan id="tspan5555" x="400" y="172.362">- _ifname</tspan><tspan id="tspan5557" x="400" y="182.322">- _listen_address</tspan><tspan id="tspan5559" x="400" y="192.282">- _client_port</tspan><tspan id="tspan5561" x="400" y="202.242">- _server_port</tspan></text><path style="fill:none;stroke:#000;stroke-width:1px;stroke-linecap:butt;stroke-linejoin:miter;stroke-opacity:1" id="path3815-8-1" d="m 400,212.36218 200,0"/><text xml:space="preserve" style="font-style:normal;font-variant:normal;font-weight:400;font-stretch:normal;font-size:11.25px;line-height:82.99999833%;font-family:Sans;-inkscape-font-specification:'Sans, Normal';text-align:start;letter-spacing:0;word-spacing:0;writing-mode:lr-tb;text-anchor:start;fill:#000;fill-opacity:1;stroke:none" id="text2989-1-9-8-9" x="400" y="222.362"><tspan id="tspan2989-1" x="400" y="222.362">Discover()</tspan><tspan id="tspan2989-2" x="400" y="231.7">Renew()</tspan><tspan id="tspan2989-3" x="400" y="241.037">Restart()</tspan><tspan id="tspan2989-4" x="400" y="250.375">FreezeRenew()</tspan><tspan id="tspan2989-5" x="400" y="259.712">GetPid()</tspan><tspan id="tspan2989-6" x="400" y="269.05">GetVersion()</tspan></text><path id="path2985-2" style="font-size:78.59629822px;font-style:normal;font-variant:normal;font-weight:400;font-stretch:normal;text-align:start;line-height:125%;letter-spacing:0;word-spacing:0;text-anchor:start;fill:#000;fill-opacity:1;stroke:none;font-family:NSimSun" d="m 386.53753,241.85889 c 1.00026,0.18295 1.67355,0.96038 2.01977,2.33229 0.34627,1.37197 0.51938,3.15549 0.51938,5.35057 l 0,11.79868 c 0,4.02437 0.30777,6.81397 0.92332,8.36884 0.61554,1.55486 1.57734,2.3323 2.88538,2.3323 l 0,-1.92072 c -1.07722,0 -1.80817,-0.68598 -2.19289,-2.05791 -0.38472,-1.37194 -0.57709,-3.24692 -0.57709,-5.62495 l 0,-13.44502 c 0,-2.56093 -0.25006,-4.48164 -0.75019,-5.76214 -0.50014,-1.28045 -1.09643,-1.92069 -1.78892,-1.92072 l 0,-0.54878 c 0.61554,3e-5 1.19262,-0.54874 1.73121,-1.64632 0.53863,-1.09752 0.8079,-3.10969 0.8079,-6.03654 l 0,-13.44501 c 0,-2.56091 0.19237,-4.48161 0.57709,-5.76214 0.38472,-1.28043 1.11567,-1.92066 2.19289,-1.92072 l 0,-1.92072 c -1.30804,6e-5 -2.26984,0.7775 -2.88538,2.3323 -0.61555,1.55492 -0.92332,4.34452 -0.92332,8.36884 l 0,11.79868 c 0,2.56098 -0.19236,4.39023 -0.57708,5.48776 -0.38472,1.09758 -1.03872,1.82928 -1.96207,2.19511 z"/><text xml:space="preserve" style="font-size:12px;font-style:normal;font-variant:normal;font-weight:400;font-stretch:normal;text-align:center;line-height:125%;letter-spacing:0;word-spacing:0;writing-mode:lr-tb;text-anchor:middle;fill:#000;fill-opacity:1;stroke:none;font-family:Sans;-inkscape-font-specification:Sans" id="text2989-1-4-6-86" x="-231.267" y="382.885" transform="matrix(0,-1,1,0,0,0)"><tspan id="tspan5553" x="-231.267" y="382.885">DBUS Methods</tspan></text><rect style="fill:#fff;fill-opacity:.90196079;stroke:#000;stroke-width:1;stroke-miterlimit:4;stroke-opacity:1;stroke-dasharray:none;stroke-dashoffset:0" id="rect3813-13-2" width="120.499" height="60" x="369.501" y="62.362"/><text xml:space="preserve" style="font-style:normal;font-variant:normal;font-weight:700;font-stretch:normal;font-size:11.25px;line-height:125%;font-family:Sans;-inkscape-font-specification:'Sans, Bold';text-align:center;letter-spacing:0;word-spacing:0;writing-mode:lr-tb;text-anchor:middle;fill:#000;fill-opacity:1;stroke:none" id="text2989-1-8-4" x="429.459" y="72.362"><tspan id="tspan5598" x="429.459" y="72.362">DhcpClient</tspan></text><rect style="fill:#fff;fill-opacity:.90196079;stroke:#000;stroke-width:1;stroke-miterlimit:4;stroke-dasharray:none;stroke-dashoffset:0;stroke-opacity:1" id="rect3813-13-6" width="130" height="60" x="500" y="62.362"/><text xml:space="preserve" style="font-style:normal;font-variant:normal;font-weight:700;font-stretch:normal;font-size:11.25px;line-height:125%;font-family:Sans;-inkscape-font-specification:'Sans, Bold';text-align:center;letter-spacing:0;word-spacing:0;writing-mode:lr-tb;text-anchor:middle;fill:#000;fill-opacity:1;stroke:none" id="text2989-1-8-5" x="564.504" y="72.362"><tspan id="tspan5600" x="564.504" y="72.362">dbus.service.Object</tspan></text><path style="fill:none;stroke:#000;stroke-width:1px;stroke-linecap:butt;stroke-linejoin:miter;stroke-opacity:1" id="path3815-4-9" d="m 370,82.362183 120,0"/><path style="fill:none;stroke:#000;stroke-width:1px;stroke-linecap:butt;stroke-linejoin:miter;stroke-opacity:1" id="path3815-4-0" d="m 499.96039,82.362183 130.03961,0"/><path style="fill:none;stroke:#000;stroke-width:1px;stroke-linecap:butt;stroke-linejoin:miter;stroke-opacity:1;marker-end:url(#EmptyTriangleOutL)" id="path5627" d="m 490,142.36218 0,-10 -60,0 0,-10"/><path style="fill:none;stroke:#000;stroke-width:1px;stroke-linecap:butt;stroke-linejoin:miter;stroke-opacity:1;marker-end:url(#EmptyTriangleOutL)" id="path5629" d="m 510,142.36218 0,-9.99999 60,-1e-5 0,-10"/><text xml:space="preserve" style="font-style:normal;font-variant:normal;font-weight:400;font-stretch:normal;font-size:11.25px;line-height:82.99999833%;font-family:Sans;-inkscape-font-specification:'Sans, Normal';text-align:start;letter-spacing:0;word-spacing:0;writing-mode:lr-tb;text-anchor:start;fill:#000;fill-opacity:1;stroke:none" id="text3000-1-9-8-9-0" x="400" y="290.362"><tspan id="tspan3000-1" x="400" y="290.362">DhcpDiscoverSent()</tspan><tspan id="tspan3-3000-2" x="400" y="299.7">DhcpOfferRecv()</tspan><tspan id="tspan3000-3" x="400" y="309.037">DhcpRequestSent()</tspan><tspan id="tspan3000-4" x="400" y="318.375">DhcpRenewSent()</tspan><tspan id="tspan3000-5" x="400" y="327.712">DhcpReleaseSent()</tspan><tspan id="tspan3000-6" x="400" y="337.05">DhcpAckRecv()</tspan><tspan id="tspan3000-7" x="400" y="346.387">IpConfigApplied()</tspan><tspan id="tspan3000-8" x="400" y="355.725">IpDnsReceived()</tspan><tspan id="tspan3000-9" x="400" y="365.062">LeaseLost()</tspan></text><path id="path2985-2-4" style="font-size:78.59629822px;font-style:normal;font-variant:normal;font-weight:400;font-stretch:normal;text-align:start;line-height:125%;letter-spacing:0;word-spacing:0;text-anchor:start;fill:#000;fill-opacity:1;stroke:none;font-family:NSimSun" d="m 386.42213,324.95303 c 1.00026,0.26416 1.67355,1.38671 2.01977,3.36763 0.34627,1.98102 0.51938,4.55628 0.51938,7.72579 l 0,17.03633 c 0,5.81087 0.30777,9.83882 0.92332,12.08393 0.61554,2.24509 1.57734,3.36765 2.88538,3.36765 l 0,-2.77336 c -1.07722,0 -1.80817,-0.9905 -2.19289,-2.97146 C 390.19237,360.80857 390,358.10125 390,354.66757 l 0,-19.41351 c 0,-3.69778 -0.25006,-6.47112 -0.75019,-8.32006 -0.50014,-1.84887 -1.09643,-2.77332 -1.78892,-2.77337 l 0,-0.79239 c 0.61554,4e-5 1.19262,-0.79233 1.73121,-2.37715 0.53863,-1.58473 0.8079,-4.49014 0.8079,-8.71627 l 0,-19.4135 c 0,-3.69775 0.19237,-6.47108 0.57709,-8.32006 0.38472,-1.84884 1.11567,-2.77328 2.19289,-2.77337 l 0,-2.77336 c -1.30804,9e-5 -2.26984,1.12265 -2.88538,3.36765 -0.61555,2.24518 -0.92332,6.27314 -0.92332,12.08393 l 0,17.03633 c 0,3.69784 -0.19236,6.33913 -0.57708,7.92388 -0.38472,1.58481 -1.03872,2.64133 -1.96207,3.16956 z"/><text xml:space="preserve" style="font-size:12px;font-style:normal;font-variant:normal;font-weight:400;font-stretch:normal;text-align:center;line-height:125%;letter-spacing:0;word-spacing:0;writing-mode:lr-tb;text-anchor:middle;fill:#000;fill-opacity:1;stroke:none;font-family:Sans;-inkscape-font-specification:Sans" id="text2989-1-4-6-86-4" x="-323.996" y="382.77" transform="matrix(0,-1,1,0,0,0)"><tspan id="tspan6089" x="-323.996" y="382.77">DBUS Signals</tspan></text><text xml:space="preserve" style="font-style:normal;font-variant:normal;font-weight:400;font-stretch:normal;font-size:11.25px;line-height:82.99999833%;font-family:Sans;-inkscape-font-specification:'Sans, Normal';text-align:start;letter-spacing:0;word-spacing:0;writing-mode:lr-tb;text-anchor:start;fill:#000;fill-opacity:1;stroke:none" id="text5831" x="90" y="164.362"><tspan id="tspan5833" x="90" y="164.362">start()</tspan><tspan id="tspan5833-1" x="90" y="173.7">stop()</tspan><tspan id="tspan5833-1-6" x="90" y="183.037">restart()</tspan><tspan id="tspan5833-1-6-5" x="90" y="192.375">wait_lease()</tspan><tspan id="tspan5833-1-6-5-0" x="90" y="201.712">get_ipv4_address()</tspan><tspan id="tspan5833-1-6-5-0-3" x="90" y="211.05">get_ipv4_dns_list()</tspan><tspan id="text5831-0-3-2-7-1-6" x="90" y="220.387">...</tspan></text><text xml:space="preserve" style="font-style:normal;font-variant:normal;font-weight:400;font-stretch:normal;font-size:11.25px;line-height:82.99999833%;font-family:Sans;-inkscape-font-specification:'Sans, Normal';text-align:start;letter-spacing:0;word-spacing:0;writing-mode:lr-tb;text-anchor:start;fill:#000;fill-opacity:1;stroke:none" id="text117" x="90" y="272.362"><tspan id="tspan5831" x="90" y="272.362">start()</tspan><tspan id="tspan5831-1" x="90" y="281.7">kill()</tspan><tspan id="tspan5831-2" x="90" y="291.037">isRunning()</tspan><tspan id="tspan5831-3" x="90" y="300.375">hasBeenStarted()</tspan></text><text xml:space="preserve" style="font-style:normal;font-variant:normal;font-weight:400;font-stretch:normal;font-size:11.25px;line-height:82.99999833%;font-family:Sans;-inkscape-font-specification:'Sans, Normal';text-align:start;letter-spacing:0;word-spacing:0;writing-mode:lr-tb;text-anchor:start;fill:#000;fill-opacity:1;stroke:none" id="text666" x="90" y="342.362"><tspan id="tspan6666-1" x="90" y="342.362">getIpv4Address()</tspan><tspan id="tspan6666-2" x="90" y="351.7">getIpv4Netmask()</tspan><tspan id="tspan6666-3" x="90" y="361.037">getIpv4DefaultGateway()</tspan><tspan id="tspan6666-4" x="90" y="370.375">getIpv4DnsList()</tspan></text></g></svg>